<?xml version="1.0" encoding="UTF-8" standalone="no"?>
<!-- Generator: Adobe Illustrator 19.0.0, SVG Export Plug-In . SVG Version: 6.00 Build 0)  -->

<svg
   xmlns:dc="http://purl.org/dc/elements/1.1/"
   xmlns:cc="http://creativecommons.org/ns#"
   xmlns:rdf="http://www.w3.org/1999/02/22-rdf-syntax-ns#"
   xmlns:svg="http://www.w3.org/2000/svg"
   xmlns="http://www.w3.org/2000/svg"
   xmlns:sodipodi="http://sodipodi.sourceforge.net/DTD/sodipodi-0.dtd"
   xmlns:inkscape="http://www.inkscape.org/namespaces/inkscape"
   version="1.1"
   id="Layer_1"
   x="0px"
   y="0px"
   viewBox="0 0 502 502"
   style="enable-background:new 0 0 502 502;"
   xml:space="preserve"
   sodipodi:docname="beer-svgrepo_broken.svg"
   inkscape:version="0.92.5 (2060ec1f9f, 2020-04-08)"><metadata
   id="metadata55"><rdf:RDF><cc:Work
       rdf:about=""><dc:format>image/svg+xml</dc:format><dc:type
         rdf:resource="http://purl.org/dc/dcmitype/StillImage" /><dc:title></dc:title></cc:Work></rdf:RDF></metadata><defs
   id="defs53" /><sodipodi:namedview
   pagecolor="#ffffff"
   bordercolor="#666666"
   borderopacity="1"
   objecttolerance="10"
   gridtolerance="10"
   guidetolerance="10"
   inkscape:pageopacity="0"
   inkscape:pageshadow="2"
   inkscape:window-width="2245"
   inkscape:window-height="995"
   id="namedview51"
   showgrid="false"
   showguides="true"
   inkscape:guide-bbox="true"
   inkscape:zoom="0.24166831"
   inkscape:cx="240.79636"
   inkscape:cy="390.05183"
   inkscape:window-x="0"
   inkscape:window-y="27"
   inkscape:window-maximized="0"
   inkscape:current-layer="g14"><sodipodi:guide
     position="298.4458,386.95547"
     orientation="0,1"
     id="guide862"
     inkscape:locked="false" /><sodipodi:guide
     position="357.92861,351.72175"
     orientation="0,1"
     id="guide864"
     inkscape:locked="false" /><sodipodi:guide
     position="245.7789,234.80662"
     orientation="1,0"
     id="guide868"
     inkscape:locked="false" /><sodipodi:guide
     position="291.86244,369.39983"
     orientation="0,1"
     id="guide870"
     inkscape:locked="false" /></sodipodi:namedview>
<g
   id="g18"
   transform="matrix(-1,0,0,1,502,0)">
	<g
   id="g16">
		<g
   id="g14">
			<path
   d="m 180.5207,248.94775 c -6.09892,0 -11.04277,4.94385 -11.04277,11.04277 v 177.02663 c 0,6.09892 4.94385,11.04277 11.04277,11.04277 6.09892,0 11.04277,-4.94385 11.04277,-11.04167 V 259.99052 c 0,-6.09892 -4.94385,-11.04277 -11.04277,-11.04277 z"
   id="path2"
   inkscape:connector-curvature="0"
   style="stroke-width:0.99999994" />
			<path
   d="m 180.5207,179.31647 c -6.09892,0 -11.04277,4.94384 -11.04277,11.04277 v 21.24297 c 0,6.09892 4.94385,11.04277 11.04277,11.04277 6.09892,0 11.04277,-4.94385 11.04277,-11.04277 v -21.24297 c 0,-6.09893 -4.94385,-11.04277 -11.04277,-11.04277 z"
   id="path4"
   inkscape:connector-curvature="0"
   style="stroke-width:0.99999994" />
			<path
   d="m 266.67418,197.01913 c -6.09892,0 -11.04277,4.94385 -11.04277,11.04277 v 228.95525 c 0,6.09892 4.94385,11.04277 11.04277,11.04277 6.09892,0 11.04277,-4.94385 11.04277,-11.04277 V 208.0619 c 0,-6.09892 -4.94385,-11.04277 -11.04277,-11.04277 z"
   id="path6"
   inkscape:connector-curvature="0"
   style="stroke-width:0.99999994" />
			<path
   d="m 352.82765,197.01913 c -6.09892,0 -11.04277,4.94385 -11.04277,11.04277 v 228.95525 c 0,6.09892 4.94385,11.04277 11.04277,11.04277 6.09892,0 11.04277,-4.94385 11.04277,-11.04277 V 208.0619 c 0,-6.09892 -4.94385,-11.04277 -11.04277,-11.04277 z"
   id="path8"
   inkscape:connector-curvature="0"
   style="stroke-width:0.99999994" />
			
			<path
   d="m 108.91661,44.122639 -0.80776,98.165751 H 87.10771 c -35.92544,0 -65.152335,29.22689 -65.152335,65.15233 v 121.91549 c 0,35.92544 29.388705,61.74645 65.152335,65.15233 h 21.00114 v 94.58852 c 0,6.09892 4.94385,11.04277 11.04277,11.04277 H 420.0991 c 6.09892,0 11.04277,-4.94385 11.04277,-11.04277 V 44.122639 c -1.34204,-49.2734653 -323.02261,-49.2734653 -322.22526,0 z M 108.10885,372.423 H 87.10771 c -23.74747,0 -43.0668,-19.31932 -43.0668,-43.06679 V 207.44072 c 0,-23.74747 19.31933,-43.0668 43.0668,-43.0668 h 21.00114 z M 409.05522,478.05429 H 130.19439 l 1.61552,-414.545363 c 19.35025,6.174752 66.9029,19.521495 134.72966,19.521495 88.74423,0 128.60402,-13.238579 143.65801,-19.521495 z M 266.95193,21.927371 c 22.1363,-0.457524 118.09562,1.372035 142.7849,22.414434 -40.35177,15.1689 -85.34009,19.167122 -143.19726,19.167122 -74.64631,0 -135.65514,-19.386288 -135.65514,-19.386288 27.54635,-22.045847 110.69827,-21.670923 136.0675,-22.195268 z"
   id="path12"
   inkscape:connector-curvature="0"
   sodipodi:nodetypes="ccsssscsssscccssssccccccccscccs"
   style="stroke-width:0.99999994" />
		<path
   style="fill:none;stroke:#000000;stroke-width:18.19999886;stroke-linecap:round;stroke-linejoin:miter;stroke-miterlimit:4;stroke-dasharray:none;stroke-opacity:1"
   d="m 328.96945,70.625285 -27.9794,14.629339 26.33356,14.731363 c 0,0 -50.19835,36.205753 -46.08373,36.205753 4.11462,0 55.9588,41.37799 55.9588,41.37799 l -26.33355,17.24085"
   id="path872"
   inkscape:connector-curvature="0"
   sodipodi:nodetypes="cccscc" /></g>
	</g>
</g>
<g
   id="g20">
</g>
<g
   id="g22">
</g>
<g
   id="g24">
</g>
<g
   id="g26">
</g>
<g
   id="g28">
</g>
<g
   id="g30">
</g>
<g
   id="g32">
</g>
<g
   id="g34">
</g>
<g
   id="g36">
</g>
<g
   id="g38">
</g>
<g
   id="g40">
</g>
<g
   id="g42">
</g>
<g
   id="g44">
</g>
<g
   id="g46">
</g>
<g
   id="g48">
</g>
</svg>